<svg xmlns="http://www.w3.org/2000/svg" xmlns:xlink="http://www.w3.org/1999/xlink" width="1000" zoomAndPan="magnify" viewBox="0 0 750 374.999991" height="500" preserveAspectRatio="xMidYMid meet" version="1.0"><defs><g/><clipPath id="a2cec49538"><path d="M -35.527344 -173.605469 L 781.933594 -173.605469 C 791.082031 -173.605469 799.859375 -169.972656 806.328125 -163.5 C 812.800781 -157.03125 816.433594 -148.253906 816.433594 -139.105469 L 816.433594 514.105469 C 816.433594 523.253906 812.800781 532.03125 806.328125 538.5 C 799.859375 544.972656 791.082031 548.605469 781.933594 548.605469 L -35.527344 548.605469 C -44.679688 548.605469 -53.453125 544.972656 -59.921875 538.5 C -66.394531 532.03125 -70.027344 523.253906 -70.027344 514.105469 L -70.027344 -139.105469 C -70.027344 -148.253906 -66.394531 -157.03125 -59.921875 -163.5 C -53.453125 -169.972656 -44.679688 -173.605469 -35.527344 -173.605469 Z M -35.527344 -173.605469 " clip-rule="nonzero"/></clipPath><clipPath id="5fa29778d5"><path d="M 625.488281 147.230469 L 720.773438 147.230469 L 720.773438 233.144531 L 625.488281 233.144531 Z M 625.488281 147.230469 " clip-rule="nonzero"/></clipPath></defs><g clip-path="url(#a2cec49538)"><rect x="-75" width="900" fill="#000000" y="-37.499999" height="449.999989" fill-opacity="1"/></g><g clip-path="url(#5fa29778d5)"><path fill="#5271ff" d="M 694.753906 147.394531 L 658.953125 196.796875 L 651.824219 186.960938 L 625.488281 186.832031 L 658.953125 233.011719 L 721.109375 147.242188 L 694.753906 147.394531 " fill-opacity="1" fill-rule="nonzero"/></g><g fill="#ffffff" fill-opacity="1"><g transform="translate(36.140511, 265.074207)"><g><path d="M 110.859375 -151.78125 L 140.609375 -151.78125 L 140.609375 0 L 110.859375 0 L 110.859375 -62 L 46.375 -62 L 46.375 0 L 16.609375 0 L 16.609375 -151.78125 L 46.375 -151.78125 L 46.375 -89.78125 L 110.859375 -89.78125 Z M 110.859375 -151.78125 "/></g></g></g><g fill="#ffffff" fill-opacity="1"><g transform="translate(193.370745, 265.074207)"><g><path d="M 70.921875 -26.53125 C 82.660156 -26.53125 91.175781 -30.003906 96.46875 -36.953125 C 101.757812 -43.898438 104.40625 -52.25 104.40625 -62 C 104.40625 -71.75 101.757812 -80.097656 96.46875 -87.046875 C 91.175781 -93.992188 82.660156 -97.46875 70.921875 -97.46875 C 59.179688 -97.46875 50.664062 -93.992188 45.375 -87.046875 C 40.09375 -80.097656 37.453125 -71.75 37.453125 -62 C 37.453125 -52.25 40.09375 -43.898438 45.375 -36.953125 C 50.664062 -30.003906 59.179688 -26.53125 70.921875 -26.53125 Z M 70.921875 1.234375 C 57.703125 1.234375 46.335938 -1.613281 36.828125 -7.3125 C 27.316406 -13.019531 20.082031 -20.664062 15.125 -30.25 C 10.164062 -39.84375 7.6875 -50.425781 7.6875 -62 C 7.6875 -73.738281 10.164062 -84.359375 15.125 -93.859375 C 20.082031 -103.367188 27.316406 -110.972656 36.828125 -116.671875 C 46.335938 -122.378906 57.703125 -125.234375 70.921875 -125.234375 C 84.316406 -125.234375 95.722656 -122.378906 105.140625 -116.671875 C 114.566406 -110.972656 121.757812 -103.367188 126.71875 -93.859375 C 131.6875 -84.359375 134.171875 -73.738281 134.171875 -62 C 134.171875 -50.425781 131.6875 -39.84375 126.71875 -30.25 C 121.757812 -20.664062 114.566406 -13.019531 105.140625 -7.3125 C 95.722656 -1.613281 84.316406 1.234375 70.921875 1.234375 Z M 70.921875 1.234375 "/></g></g></g><g fill="#ffffff" fill-opacity="1"><g transform="translate(335.225126, 265.074207)"><g><path d="M 14.875 -173.59375 L 44.640625 -173.59375 L 44.640625 0 L 14.875 0 Z M 89.28125 -124 L 119.046875 -124 L 119.046875 -111.59375 C 119.046875 -101.019531 116.851562 -91.101562 112.46875 -81.84375 C 108.082031 -72.582031 101.59375 -65.054688 93 -59.265625 L 131.4375 0 L 94.484375 0 L 44.890625 -76.390625 L 55.296875 -76.390625 C 63.566406 -76.390625 70.179688 -78 75.140625 -81.21875 C 80.097656 -84.445312 83.691406 -88.742188 85.921875 -94.109375 C 88.160156 -99.484375 89.28125 -105.394531 89.28125 -111.84375 Z M 89.28125 -124 "/></g></g></g><g fill="#ffffff" fill-opacity="1"><g transform="translate(468.895622, 265.074207)"><g><path d="M 104.40625 -62 C 103.90625 -72.914062 101.09375 -81.554688 95.96875 -87.921875 C 90.84375 -94.285156 82.660156 -97.46875 71.421875 -97.46875 C 59.347656 -97.46875 50.664062 -93.992188 45.375 -87.046875 C 40.09375 -80.097656 37.453125 -71.75 37.453125 -62 C 37.453125 -55.550781 38.566406 -49.640625 40.796875 -44.265625 C 43.023438 -38.890625 46.660156 -34.585938 51.703125 -31.359375 C 56.742188 -28.140625 63.316406 -26.53125 71.421875 -26.53125 C 81.671875 -26.53125 89.726562 -29.421875 95.59375 -35.203125 C 101.46875 -40.992188 104.40625 -49.925781 104.40625 -62 Z M 144.09375 0 L 114.328125 0 C 113.003906 -3.300781 111.847656 -6.523438 110.859375 -9.671875 C 109.867188 -12.816406 108.957031 -15.957031 108.125 -19.09375 C 103.988281 -12.976562 98.570312 -8.0625 91.875 -4.34375 C 85.1875 -0.625 77.210938 1.234375 67.953125 1.234375 C 56.210938 1.234375 45.796875 -1.570312 36.703125 -7.1875 C 27.609375 -12.8125 20.5 -20.457031 15.375 -30.125 C 10.25 -39.800781 7.6875 -50.507812 7.6875 -62.25 C 7.6875 -73.820312 10.207031 -84.359375 15.25 -93.859375 C 20.289062 -103.367188 27.566406 -110.972656 37.078125 -116.671875 C 46.585938 -122.378906 58.035156 -125.234375 71.421875 -125.234375 C 90.273438 -125.234375 105.28125 -119.53125 116.4375 -108.125 C 127.59375 -96.71875 133.503906 -81.34375 134.171875 -62 C 134.335938 -57.863281 134.5 -52.488281 134.65625 -45.875 C 134.820312 -39.257812 135.523438 -31.984375 136.765625 -24.046875 C 138.003906 -16.117188 140.445312 -8.101562 144.09375 0 Z M 144.09375 0 "/></g></g></g><g fill="#ffffff" fill-opacity="1"><g transform="translate(630.176032, 263.908129)"><g><path d="M 6.53125 -24.96875 C 6.53125 -25.59375 6.15625 -26.46875 5.15625 -26.84375 L 4.984375 -26.359375 C 5.859375 -26.078125 6.015625 -25.265625 6.046875 -24.96875 Z M 11.796875 -19.09375 C 11.390625 -20.09375 10.40625 -20.5 9.328125 -20.46875 L 9.328125 -19.984375 C 10.4375 -20.015625 11.0625 -19.5 11.328125 -18.953125 Z M 3.828125 -26.40625 L 3.6875 -26.875 C 2.625 -26.515625 2.28125 -25.375 2.28125 -25 L 2.765625 -25 C 2.765625 -25.515625 3.203125 -26.140625 3.828125 -26.40625 Z M 6.53125 -21.203125 L 6.53125 -23.671875 L 6.046875 -23.671875 L 6.046875 -21.203125 Z M 11.765625 -17.515625 L 11.28125 -17.703125 C 10.984375 -16.96875 10.109375 -16.625 9.359375 -16.703125 L 9.359375 -16.21875 C 10.515625 -16.15625 11.390625 -16.671875 11.765625 -17.515625 Z M 8.15625 -19.984375 L 8.15625 -20.46875 L 6.046875 -20.46875 L 6.046875 -19.984375 Z M 2.765625 -21.203125 L 2.765625 -23.703125 L 2.28125 -23.703125 L 2.28125 -21.203125 Z M 8.15625 -16.21875 L 8.15625 -16.703125 L 6.71875 -16.703125 L 6.71875 -16.21875 Z M 2.765625 -17.890625 L 2.765625 -20.09375 L 2.28125 -20.09375 L 2.28125 -17.890625 Z M 6.53125 -14.5625 L 6.53125 -16.046875 L 6.046875 -16.046875 L 6.046875 -14.5625 Z M 2.765625 -14.5625 L 2.765625 -16.78125 L 2.28125 -16.78125 L 2.28125 -14.5625 Z M 6.53125 -11.25 L 6.53125 -13.453125 L 6.046875 -13.453125 L 6.046875 -11.25 Z M 11.765625 -6.5625 C 10.953125 -7.296875 10.140625 -7.34375 9.40625 -6.828125 L 9.546875 -6.375 C 10.171875 -6.828125 10.734375 -6.828125 11.4375 -6.234375 Z M 12.3125 -5.125 L 11.84375 -5.046875 C 11.875 -4.5 11.4375 -3.765625 10.953125 -3.609375 L 11.203125 -3.171875 C 11.875 -3.46875 12.390625 -4.34375 12.3125 -5.125 Z M 2.765625 -11.25 L 2.765625 -13.453125 L 2.28125 -13.453125 L 2.28125 -11.25 Z M 6.53125 -7.921875 L 6.53125 -10.140625 L 6.046875 -10.140625 L 6.046875 -7.921875 Z M 8.296875 -6.046875 L 8.21875 -6.53125 C 7.5625 -6.421875 6.9375 -6.34375 6.59375 -6.828125 L 6.15625 -6.671875 C 6.453125 -5.796875 7.640625 -5.9375 8.296875 -6.046875 Z M 2.765625 -7.921875 L 2.765625 -10.140625 L 2.28125 -10.140625 L 2.28125 -7.921875 Z M 9.921875 -2.578125 L 9.765625 -3.0625 C 9.359375 -2.875 8.296875 -2.65625 7.78125 -2.6875 L 7.78125 -2.25 C 8.296875 -2.171875 9.59375 -2.46875 9.921875 -2.578125 Z M 6.59375 -2.796875 C 6.015625 -2.875 5.234375 -3.140625 4.75 -3.5 L 4.5 -3.09375 C 5.015625 -2.6875 5.90625 -2.4375 6.5625 -2.328125 Z M 3.71875 -4.421875 C 3.28125 -4.828125 2.953125 -5.609375 2.84375 -6.375 L 2.390625 -6.265625 C 2.4375 -5.453125 2.875 -4.53125 3.390625 -4.09375 Z M 11.5 -2.765625 C 10.578125 -2.171875 8.921875 -1.734375 7.59375 -1.734375 C 5.390625 -1.734375 1.8125 -3.0625 1.8125 -7.265625 L 1.8125 -24.78125 C 1.8125 -28.359375 7 -28.359375 7 -24.78125 L 7 -20.9375 L 9.546875 -20.9375 C 13.421875 -20.9375 13.421875 -15.75 9.546875 -15.75 L 7 -15.75 L 7 -7.265625 C 7 -6.828125 7.40625 -6.9375 7.59375 -6.9375 C 8.15625 -6.9375 8.703125 -7 9.140625 -7.265625 C 11.84375 -8.953125 14.53125 -4.828125 11.5 -2.765625 Z M 11.5 -2.765625 "/></g></g></g><g fill="#ffffff" fill-opacity="1"><g transform="translate(643.819953, 263.908129)"><g><path d="M 18.921875 -16.328125 C 18.546875 -16.921875 17.8125 -17.921875 17.4375 -18.296875 L 17.109375 -17.921875 C 17.59375 -17.4375 18.171875 -16.625 18.515625 -16.078125 Z M 16.453125 -19.171875 C 16.046875 -19.578125 15.015625 -20.171875 14.34375 -20.46875 L 14.203125 -20.015625 C 14.640625 -19.796875 15.640625 -19.328125 16.109375 -18.8125 Z M 20.015625 -13.203125 C 19.953125 -13.6875 19.734375 -14.671875 19.46875 -15.1875 L 19.03125 -14.96875 C 19.25 -14.453125 19.5 -13.640625 19.546875 -13.125 Z M 13.171875 -20.875 C 12.53125 -21.0625 11.25 -21.203125 10.765625 -21.203125 L 10.765625 -20.71875 C 11.203125 -20.765625 12.125 -20.65625 13.015625 -20.390625 Z M 20.0625 -12.203125 L 19.625 -12.3125 C 19.546875 -11.84375 19.328125 -11.546875 18.921875 -11.328125 L 19.140625 -10.921875 C 19.625 -11.0625 20.0625 -11.71875 20.0625 -12.203125 Z M 15.34375 -14.890625 C 15.015625 -15.453125 14.640625 -15.9375 14.09375 -16.296875 L 13.796875 -15.890625 C 14.34375 -15.53125 14.5625 -15.234375 14.9375 -14.640625 Z M 13.171875 -16.890625 C 12.421875 -17.296875 11.546875 -17.484375 10.765625 -17.515625 L 10.765625 -17.03125 C 11.578125 -17.03125 12.46875 -16.734375 12.984375 -16.453125 Z M 9.515625 -20.609375 L 9.4375 -21.09375 C 8.84375 -21.0625 7.640625 -20.765625 7.078125 -20.5 L 7.265625 -20.0625 C 7.859375 -20.3125 8.78125 -20.578125 9.515625 -20.609375 Z M 17.890625 -10.6875 L 17.890625 -11.171875 L 15.75 -11.171875 L 15.75 -10.6875 Z M 14.640625 -13.75 L 14.640625 -14.234375 L 12.421875 -14.234375 L 12.421875 -13.75 Z M 19.21875 -8.1875 L 18.84375 -7.8125 C 19.0625 -7.375 19.171875 -7 18.8125 -6.421875 L 19.25 -6.234375 C 19.578125 -6.59375 19.6875 -7.5625 19.21875 -8.1875 Z M 18.359375 -9 C 17.65625 -9.296875 16.890625 -9.109375 16.59375 -8.78125 L 16.890625 -8.4375 C 17.296875 -8.671875 17.625 -8.734375 18.171875 -8.5625 Z M 9.734375 -16.921875 L 9.65625 -17.40625 C 9 -17.296875 8.109375 -16.8125 7.703125 -16.484375 L 7.96875 -16.109375 C 8.484375 -16.484375 9.1875 -16.78125 9.734375 -16.921875 Z M 14.640625 -10.6875 L 14.640625 -11.171875 L 12.421875 -11.171875 L 12.421875 -10.6875 Z M 6.1875 -19.5 L 6.015625 -19.984375 C 5.453125 -19.6875 4.421875 -18.921875 4.0625 -18.46875 L 4.390625 -18.140625 C 4.90625 -18.65625 5.671875 -19.28125 6.1875 -19.5 Z M 11.328125 -13.75 L 11.328125 -14.234375 L 9.109375 -14.234375 L 9.109375 -13.75 Z M 18.65625 -5.453125 L 18.25 -5.75 C 17.84375 -5.265625 17.03125 -4.6875 16.59375 -4.421875 L 16.890625 -4.015625 C 17.1875 -4.203125 18.109375 -4.796875 18.65625 -5.453125 Z M 16.265625 -7.96875 L 15.859375 -8.265625 C 15.484375 -7.8125 14.671875 -7.40625 14.125 -7.1875 L 14.375 -6.78125 C 14.96875 -6.96875 15.75 -7.40625 16.265625 -7.96875 Z M 7.265625 -15.640625 L 6.96875 -16 C 6.5625 -15.703125 6.1875 -15.265625 5.9375 -14.828125 L 6.375 -14.609375 C 6.59375 -14.96875 6.9375 -15.34375 7.265625 -15.640625 Z M 11.328125 -10.6875 L 11.328125 -11.171875 L 9.109375 -11.171875 L 9.109375 -10.6875 Z M 8 -13.75 L 8 -14.234375 L 6.640625 -14.234375 L 6.640625 -13.75 Z M 3.546875 -17.109375 L 3.140625 -17.375 C 2.796875 -17.078125 2.109375 -15.703125 1.921875 -15.15625 L 2.390625 -15.046875 C 2.578125 -15.703125 3.3125 -16.859375 3.546875 -17.109375 Z M 13.234375 -6.453125 L 13.046875 -6.890625 C 12.578125 -6.75 11.578125 -6.640625 10.921875 -6.671875 L 10.921875 -6.1875 C 11.609375 -6.15625 12.578125 -6.1875 13.234375 -6.453125 Z M 8 -10.6875 L 8 -11.171875 L 5.796875 -11.171875 L 5.796875 -10.6875 Z M 15.703125 -3.46875 L 15.484375 -3.90625 C 14.859375 -3.5 13.796875 -3.28125 13.015625 -3.140625 L 13.125 -2.65625 C 13.71875 -2.765625 15.046875 -3.0625 15.703125 -3.46875 Z M 9.875 -6.75 C 9.359375 -6.75 8.265625 -7.1875 7.859375 -7.484375 L 7.671875 -7.046875 C 8.328125 -6.59375 9.1875 -6.34375 9.765625 -6.265625 Z M 1.984375 -13.75 L 1.515625 -13.796875 C 1.328125 -13.125 1.25 -11.875 1.328125 -11.28125 L 1.8125 -11.328125 C 1.734375 -11.875 1.84375 -13.09375 1.984375 -13.75 Z M 7.109375 -8.078125 C 6.78125 -8.40625 6.234375 -9 5.9375 -9.65625 L 5.5 -9.484375 C 5.9375 -8.5625 6.453125 -8.03125 6.78125 -7.75 Z M 11.71875 -2.5 L 11.6875 -2.984375 C 11.25 -2.875 9.765625 -2.90625 9.25 -3.03125 L 9.140625 -2.578125 C 9.734375 -2.4375 11.328125 -2.359375 11.71875 -2.5 Z M 2.6875 -7.859375 C 2.46875 -8.296875 2.171875 -8.890625 1.953125 -10.03125 L 1.46875 -10 C 1.546875 -9.40625 1.921875 -8.296875 2.25 -7.640625 Z M 8.078125 -3.28125 C 7.375 -3.5 6.421875 -3.90625 5.9375 -4.28125 L 5.640625 -3.875 C 6.265625 -3.421875 7.34375 -3.03125 7.859375 -2.84375 Z M 4.875 -5.046875 C 4.390625 -5.421875 3.609375 -6.265625 3.359375 -6.71875 L 2.953125 -6.453125 C 3.25 -5.96875 4.0625 -5.09375 4.53125 -4.6875 Z M 20.546875 -12.46875 C 20.546875 -11.03125 19.65625 -10.21875 17.921875 -10.21875 L 6.3125 -10.21875 C 6.75 -8.671875 8.4375 -7.15625 10.65625 -7.15625 C 12.359375 -7.15625 14.265625 -7.375 15.703125 -8.734375 C 18.46875 -11.390625 21.3125 -7.78125 19.359375 -5.5 C 17.328125 -3.140625 14.234375 -1.953125 10.65625 -1.953125 C 5.15625 -1.953125 0.8125 -6.3125 0.8125 -11.796875 C 0.8125 -17.296875 5.125 -21.6875 10.65625 -21.6875 C 17.078125 -21.6875 20.546875 -15.890625 20.546875 -12.46875 Z M 14.3125 -14.71875 C 13.6875 -15.640625 12.25 -16.5625 10.765625 -16.5625 C 9.25 -16.5625 7.890625 -15.640625 7.046875 -14.71875 Z M 14.3125 -14.71875 "/></g></g></g><g fill="#ffffff" fill-opacity="1"><g transform="translate(665.576469, 263.908129)"><g><path d="M 16.890625 -18.21875 C 16.40625 -18.734375 15.234375 -19.625 14.53125 -19.953125 L 14.34375 -19.5 C 15.1875 -19.0625 15.9375 -18.4375 16.5625 -17.84375 Z M 18.359375 -14.640625 C 18.65625 -15.59375 18.25 -16.59375 17.78125 -17.078125 L 17.40625 -16.78125 C 17.734375 -16.375 18.140625 -15.53125 17.84375 -14.828125 Z M 13.28125 -20.421875 C 12.6875 -20.6875 11.609375 -20.90625 10.875 -20.9375 L 10.84375 -20.46875 C 11.359375 -20.421875 12.53125 -20.25 13.09375 -19.984375 Z M 17.140625 -13.53125 L 17.03125 -14.09375 C 16.515625 -13.828125 15.703125 -13.96875 15.234375 -14.453125 L 14.828125 -14.203125 C 15.15625 -13.6875 16.515625 -13.203125 17.140625 -13.53125 Z M 14.453125 -15.265625 C 14.09375 -15.75 13.125 -16.453125 12.765625 -16.59375 L 12.46875 -16.21875 C 12.90625 -16 13.71875 -15.453125 14.09375 -14.9375 Z M 9.59375 -20.421875 L 9.59375 -20.90625 C 8.703125 -20.875 7.671875 -20.609375 7.109375 -20.390625 L 7.265625 -19.90625 C 7.671875 -20.0625 8.84375 -20.390625 9.59375 -20.421875 Z M 11.71875 -17 C 11.140625 -17.21875 10.359375 -17.25 9.875 -17.1875 L 9.921875 -16.703125 C 10.25 -16.734375 10.921875 -16.78125 11.546875 -16.5625 Z M 18.109375 -7 C 18.40625 -7.453125 18.4375 -8.265625 17.890625 -9 L 17.515625 -8.703125 C 17.921875 -8.21875 17.84375 -7.515625 17.65625 -7.1875 Z M 16.703125 -9.765625 C 15.96875 -9.953125 14.96875 -9.8125 14.609375 -9.21875 L 15.015625 -8.953125 C 15.296875 -9.328125 15.9375 -9.515625 16.625 -9.328125 Z M 8.890625 -16.5625 L 8.734375 -17 C 8.1875 -16.890625 7.375 -16.453125 6.859375 -16 L 7.109375 -15.640625 C 7.59375 -16.078125 8.328125 -16.40625 8.890625 -16.5625 Z M 6.046875 -19.359375 L 5.828125 -19.796875 C 5.203125 -19.5 4.28125 -18.734375 3.828125 -18.359375 L 4.125 -17.953125 C 4.46875 -18.296875 5.390625 -19.0625 6.046875 -19.359375 Z M 17.375 -5.90625 L 16.921875 -6.078125 C 16.625 -5.671875 16.328125 -5.34375 15.75 -4.875 L 16.109375 -4.53125 C 16.625 -4.875 17.03125 -5.453125 17.375 -5.90625 Z M 14.53125 -8.15625 L 14.15625 -8.4375 C 13.96875 -8.21875 13.640625 -7.890625 13.34375 -7.703125 L 13.609375 -7.296875 C 13.9375 -7.484375 14.3125 -7.859375 14.53125 -8.15625 Z M 6.453125 -14.96875 L 6.046875 -15.234375 C 5.640625 -14.75 5.15625 -13.96875 5.015625 -13.28125 L 5.5 -13.171875 C 5.609375 -13.796875 6.015625 -14.484375 6.453125 -14.96875 Z M 3.390625 -17.109375 L 3.0625 -17.4375 C 2.6875 -17.078125 1.875 -15.5625 1.734375 -15.15625 L 2.140625 -14.859375 C 2.171875 -15.15625 3.203125 -16.96875 3.390625 -17.109375 Z M 12.9375 -6.859375 L 12.71875 -7.265625 C 12.203125 -6.96875 11.609375 -6.75 10.953125 -6.71875 L 10.953125 -6.234375 C 11.65625 -6.3125 12.28125 -6.453125 12.9375 -6.859375 Z M 15.078125 -3.828125 L 14.71875 -4.171875 C 14.234375 -3.796875 13.125 -3.3125 12.578125 -3.203125 L 12.71875 -2.765625 C 13.34375 -2.90625 14.5625 -3.390625 15.078125 -3.828125 Z M 5.609375 -9.875 C 5.34375 -10.328125 5.234375 -11.4375 5.265625 -12.25 L 4.796875 -12.203125 C 4.75 -11.46875 4.75 -10.796875 5.125 -9.734375 Z M 9.8125 -6.71875 C 9.25 -6.75 8.265625 -7 7.8125 -7.34375 L 7.59375 -6.9375 C 8.265625 -6.484375 9.109375 -6.265625 9.703125 -6.234375 Z M 1.765625 -13.609375 L 1.296875 -13.640625 C 1.1875 -13.125 1.0625 -11.84375 1.140625 -11.171875 L 1.578125 -11.171875 C 1.546875 -11.609375 1.65625 -12.984375 1.765625 -13.609375 Z M 7.109375 -7.78125 C 6.78125 -8.109375 6.234375 -8.625 5.9375 -9.1875 L 5.5 -9 C 5.90625 -8.265625 6.453125 -7.75 6.78125 -7.453125 Z M 11.5 -2.546875 L 11.46875 -3.03125 C 11.03125 -2.90625 9.546875 -2.90625 9.03125 -3.0625 L 8.921875 -2.578125 C 9.515625 -2.46875 11.09375 -2.4375 11.5 -2.546875 Z M 2.5 -7.703125 C 2.28125 -8.15625 2.03125 -8.734375 1.8125 -9.875 L 1.328125 -9.84375 C 1.40625 -9.25 1.734375 -8.15625 2.0625 -7.484375 Z M 7.96875 -3.25 C 7.265625 -3.46875 6.34375 -3.796875 5.828125 -4.171875 L 5.53125 -3.765625 C 6.15625 -3.359375 7.234375 -2.984375 7.75 -2.796875 Z M 4.75 -4.90625 C 4.28125 -5.265625 3.46875 -6.125 3.203125 -6.5625 L 2.796875 -6.3125 C 3.09375 -5.828125 3.90625 -4.9375 4.390625 -4.53125 Z M 18.40625 -17 C 20.421875 -13.90625 16.59375 -11.25 14.203125 -14.15625 C 13.125 -15.40625 11.875 -16.265625 10.28125 -16.265625 C 7.703125 -16.265625 5.75 -14.234375 5.75 -11.71875 C 5.75 -9.140625 7.78125 -7.15625 10.28125 -7.15625 C 11.984375 -7.15625 13.421875 -8.03125 13.9375 -9.109375 C 15.375 -11.84375 20.171875 -9.4375 18.359375 -6.453125 C 16.96875 -4.125 14.234375 -1.984375 10.359375 -1.984375 C 4.875 -1.984375 0.625 -6.1875 0.625 -11.796875 C 0.625 -17 4.75 -21.421875 10.359375 -21.421875 C 13.75 -21.421875 16.703125 -19.734375 18.40625 -17 Z M 18.40625 -17 "/></g></g></g><g fill="#ffffff" fill-opacity="1"><g transform="translate(685.120446, 263.908129)"><g><path d="M 19.03125 -16.296875 C 18.8125 -16.78125 17.625 -18.46875 17.078125 -18.8125 L 16.734375 -18.46875 C 17.296875 -18.0625 18.296875 -16.734375 18.625 -16.046875 Z M 15.859375 -19.796875 C 15.484375 -20.09375 14.15625 -20.71875 13.640625 -20.875 L 13.453125 -20.421875 C 14.125 -20.25 15.046875 -19.796875 15.53125 -19.4375 Z M 19.875 -12.125 C 19.953125 -12.71875 19.734375 -14.484375 19.5 -14.828125 L 19.0625 -14.609375 C 19.359375 -14.046875 19.390625 -12.6875 19.390625 -12.125 Z M 6.453125 -25.21875 C 6.453125 -25.890625 6.125 -26.734375 5.203125 -27.171875 L 5.015625 -26.703125 C 5.828125 -26.296875 5.9375 -25.546875 5.96875 -25.21875 Z M 12.09375 -21.171875 C 11.546875 -21.28125 10.25 -21.234375 9.65625 -21.125 L 9.703125 -20.65625 C 10.25 -20.765625 11.359375 -20.765625 12.015625 -20.71875 Z M 14.421875 -16.265625 C 14.046875 -16.671875 13.203125 -17.109375 12.609375 -17.25 L 12.5 -16.8125 C 13.09375 -16.625 13.609375 -16.328125 14.046875 -15.9375 Z M 16.15625 -13.125 C 16.078125 -13.90625 15.640625 -14.859375 15.15625 -15.453125 L 14.828125 -15.15625 C 15.1875 -14.640625 15.640625 -13.609375 15.671875 -12.984375 Z M 3.765625 -26.734375 L 3.609375 -27.21875 C 2.625 -26.8125 2.25 -25.890625 2.25 -25.21875 L 2.734375 -25.21875 C 2.734375 -25.890625 3.203125 -26.46875 3.765625 -26.734375 Z M 19.875 -9.109375 L 19.875 -10.953125 L 19.390625 -10.953125 L 19.390625 -9.109375 Z M 6.453125 -21.640625 L 6.453125 -23.859375 L 5.96875 -23.859375 L 5.96875 -21.640625 Z M 11.578125 -17.484375 C 11.140625 -17.546875 9.921875 -17.484375 9.515625 -17.25 L 9.625 -16.78125 C 10.140625 -17 11.0625 -17.078125 11.546875 -17 Z M 8.625 -20.421875 L 8.5625 -20.9375 C 8 -20.765625 7.375 -20.546875 6.9375 -20.28125 L 7.15625 -19.796875 C 7.5625 -20.09375 8.15625 -20.28125 8.625 -20.421875 Z M 16.1875 -9.109375 L 16.1875 -11.609375 L 15.703125 -11.609375 L 15.703125 -9.109375 Z M 19.875 -5.796875 L 19.875 -8 L 19.390625 -8 L 19.390625 -5.796875 Z M 2.734375 -21.640625 L 2.734375 -23.890625 L 2.25 -23.890625 L 2.25 -21.640625 Z M 6.453125 -19.546875 L 6.453125 -20.546875 L 5.96875 -20.546875 L 5.96875 -19.546875 Z M 8.8125 -16.453125 L 8.671875 -16.921875 C 8.15625 -16.734375 7.109375 -15.78125 6.828125 -15.296875 L 7.15625 -14.9375 C 7.515625 -15.484375 8.21875 -16.21875 8.8125 -16.453125 Z M 16.1875 -5.796875 L 16.1875 -8 L 15.703125 -8 L 15.703125 -5.796875 Z M 2.734375 -18.328125 L 2.734375 -20.578125 L 2.25 -20.578125 L 2.25 -18.328125 Z M 2.734375 -15.375 L 2.734375 -17.625 L 2.25 -17.625 L 2.25 -15.375 Z M 6.75 -14.125 L 6.34375 -14.34375 C 6.046875 -13.9375 5.96875 -12.359375 5.96875 -12.0625 L 6.453125 -12.0625 C 6.421875 -12.421875 6.484375 -13.640625 6.75 -14.125 Z M 2.734375 -12.0625 L 2.734375 -14.265625 L 2.25 -14.265625 L 2.25 -12.0625 Z M 6.453125 -8.734375 L 6.453125 -10.953125 L 5.96875 -10.953125 L 5.96875 -8.734375 Z M 2.734375 -8.734375 L 2.734375 -10.953125 L 2.25 -10.953125 L 2.25 -8.734375 Z M 6.453125 -5.796875 L 6.453125 -7.640625 L 5.96875 -7.640625 L 5.96875 -5.796875 Z M 2.734375 -5.796875 L 2.734375 -7.640625 L 2.25 -7.640625 L 2.25 -5.796875 Z M 6.421875 -4.390625 L 5.9375 -4.390625 C 5.96875 -3.765625 5.53125 -3.171875 4.9375 -2.90625 L 5.09375 -2.4375 C 6.15625 -2.765625 6.453125 -3.828125 6.421875 -4.390625 Z M 3.796875 -2.90625 C 2.984375 -3.171875 2.765625 -4.09375 2.734375 -4.421875 L 2.25 -4.421875 C 2.25 -3.65625 2.734375 -2.734375 3.609375 -2.4375 Z M 20.359375 -4.609375 C 20.359375 -0.734375 15.234375 -0.734375 15.234375 -4.609375 L 15.234375 -12.390625 C 15.234375 -14.671875 13.390625 -16.5625 11.09375 -16.5625 C 8.703125 -16.5625 6.9375 -14.671875 6.9375 -12.390625 L 6.9375 -4.609375 C 6.9375 -0.8125 1.765625 -0.8125 1.765625 -4.609375 L 1.765625 -25.078125 C 1.765625 -28.796875 6.9375 -28.796875 6.9375 -25.078125 L 6.9375 -20.828125 C 8.15625 -21.390625 9.59375 -21.71875 11.09375 -21.71875 C 16.15625 -21.71875 20.359375 -17.59375 20.359375 -12.390625 Z M 19.875 -4.390625 L 19.390625 -4.390625 C 19.4375 -3.765625 18.984375 -3.171875 18.40625 -2.90625 L 18.546875 -2.4375 C 19.625 -2.765625 19.90625 -3.828125 19.875 -4.390625 Z M 17.25 -2.90625 C 16.453125 -3.171875 16.21875 -4.09375 16.1875 -4.421875 L 15.703125 -4.421875 C 15.703125 -3.65625 16.1875 -2.734375 17.078125 -2.4375 Z M 17.25 -2.90625 "/></g></g></g></svg>