<svg xmlns="http://www.w3.org/2000/svg" xmlns:xlink="http://www.w3.org/1999/xlink" width="500" zoomAndPan="magnify" viewBox="0 0 375 374.999991" height="500" preserveAspectRatio="xMidYMid meet" version="1.0"><defs><g/><clipPath id="a93b04be38"><path d="M 4.523438 6.945312 L 370 6.945312 L 370 368.054688 L 4.523438 368.054688 Z M 4.523438 6.945312 " clip-rule="nonzero"/></clipPath><clipPath id="208c86c40c"><path d="M 21.773438 6.945312 L 353.226562 6.945312 C 357.800781 6.945312 362.191406 8.765625 365.425781 12 C 368.660156 15.234375 370.476562 19.621094 370.476562 24.195312 L 370.476562 350.804688 C 370.476562 355.378906 368.660156 359.765625 365.425781 363 C 362.191406 366.234375 357.800781 368.054688 353.226562 368.054688 L 21.773438 368.054688 C 17.199219 368.054688 12.808594 366.234375 9.574219 363 C 6.339844 359.765625 4.523438 355.378906 4.523438 350.804688 L 4.523438 24.195312 C 4.523438 19.621094 6.339844 15.234375 9.574219 12 C 12.808594 8.765625 17.199219 6.945312 21.773438 6.945312 Z M 21.773438 6.945312 " clip-rule="nonzero"/></clipPath><clipPath id="7efede8ab1"><path d="M 304.433594 285.90625 L 350.183594 285.90625 L 350.183594 327.15625 L 304.433594 327.15625 Z M 304.433594 285.90625 " clip-rule="nonzero"/></clipPath></defs><g clip-path="url(#a93b04be38)"><g clip-path="url(#208c86c40c)"><path fill="#ffffff" d="M 4.523438 6.945312 L 369.859375 6.945312 L 369.859375 368.054688 L 4.523438 368.054688 Z M 4.523438 6.945312 " fill-opacity="1" fill-rule="nonzero"/></g></g><g clip-path="url(#7efede8ab1)"><path fill="#5271ff" d="M 337.691406 285.984375 L 320.503906 309.703125 L 317.082031 304.980469 L 304.433594 304.917969 L 320.503906 327.089844 L 350.347656 285.910156 L 337.691406 285.984375 " fill-opacity="1" fill-rule="nonzero"/></g><g fill="#000000" fill-opacity="1"><g transform="translate(21.459781, 342.486234)"><g><path d="M 53.234375 -72.875 L 67.515625 -72.875 L 67.515625 0 L 53.234375 0 L 53.234375 -29.765625 L 22.265625 -29.765625 L 22.265625 0 L 7.984375 0 L 7.984375 -72.875 L 22.265625 -72.875 L 22.265625 -43.109375 L 53.234375 -43.109375 Z M 53.234375 -72.875 "/></g></g></g><g fill="#000000" fill-opacity="1"><g transform="translate(96.953681, 342.486234)"><g><path d="M 34.0625 -12.734375 C 39.695312 -12.734375 43.78125 -14.398438 46.3125 -17.734375 C 48.851562 -21.078125 50.125 -25.085938 50.125 -29.765625 C 50.125 -34.453125 48.851562 -38.460938 46.3125 -41.796875 C 43.78125 -45.128906 39.695312 -46.796875 34.0625 -46.796875 C 28.425781 -46.796875 24.335938 -45.128906 21.796875 -41.796875 C 19.253906 -38.460938 17.984375 -34.453125 17.984375 -29.765625 C 17.984375 -25.085938 19.253906 -21.078125 21.796875 -17.734375 C 24.335938 -14.398438 28.425781 -12.734375 34.0625 -12.734375 Z M 34.0625 0.59375 C 27.707031 0.59375 22.25 -0.773438 17.6875 -3.515625 C 13.125 -6.253906 9.648438 -9.925781 7.265625 -14.53125 C 4.878906 -19.132812 3.6875 -24.210938 3.6875 -29.765625 C 3.6875 -35.398438 4.878906 -40.5 7.265625 -45.0625 C 9.648438 -49.632812 13.125 -53.289062 17.6875 -56.03125 C 22.25 -58.769531 27.707031 -60.140625 34.0625 -60.140625 C 40.488281 -60.140625 45.960938 -58.769531 50.484375 -56.03125 C 55.015625 -53.289062 58.46875 -49.632812 60.84375 -45.0625 C 63.226562 -40.5 64.421875 -35.398438 64.421875 -29.765625 C 64.421875 -24.210938 63.226562 -19.132812 60.84375 -14.53125 C 58.46875 -9.925781 55.015625 -6.253906 50.484375 -3.515625 C 45.960938 -0.773438 40.488281 0.59375 34.0625 0.59375 Z M 34.0625 0.59375 "/></g></g></g><g fill="#000000" fill-opacity="1"><g transform="translate(165.064885, 342.486234)"><g><path d="M 7.140625 -83.359375 L 21.4375 -83.359375 L 21.4375 0 L 7.140625 0 Z M 42.875 -59.546875 L 57.15625 -59.546875 L 57.15625 -53.578125 C 57.15625 -48.503906 56.101562 -43.742188 54 -39.296875 C 51.894531 -34.847656 48.78125 -31.234375 44.65625 -28.453125 L 63.109375 0 L 45.375 0 L 21.546875 -36.671875 L 26.546875 -36.671875 C 30.523438 -36.671875 33.703125 -37.441406 36.078125 -38.984375 C 38.460938 -40.535156 40.191406 -42.601562 41.265625 -45.1875 C 42.335938 -47.769531 42.875 -50.609375 42.875 -53.703125 Z M 42.875 -59.546875 "/></g></g></g><g fill="#000000" fill-opacity="1"><g transform="translate(229.246607, 342.486234)"><g><path d="M 50.125 -29.765625 C 49.894531 -35.003906 48.546875 -39.148438 46.078125 -42.203125 C 43.617188 -45.265625 39.691406 -46.796875 34.296875 -46.796875 C 28.503906 -46.796875 24.335938 -45.128906 21.796875 -41.796875 C 19.253906 -38.460938 17.984375 -34.453125 17.984375 -29.765625 C 17.984375 -26.671875 18.519531 -23.832031 19.59375 -21.25 C 20.664062 -18.675781 22.410156 -16.613281 24.828125 -15.0625 C 27.242188 -13.507812 30.398438 -12.734375 34.296875 -12.734375 C 39.210938 -12.734375 43.078125 -14.125 45.890625 -16.90625 C 48.710938 -19.6875 50.125 -23.972656 50.125 -29.765625 Z M 69.1875 0 L 54.890625 0 C 54.253906 -1.582031 53.695312 -3.128906 53.21875 -4.640625 C 52.75 -6.148438 52.316406 -7.660156 51.921875 -9.171875 C 49.929688 -6.234375 47.328125 -3.867188 44.109375 -2.078125 C 40.898438 -0.296875 37.070312 0.59375 32.625 0.59375 C 26.988281 0.59375 21.988281 -0.753906 17.625 -3.453125 C 13.257812 -6.148438 9.84375 -9.820312 7.375 -14.46875 C 4.914062 -19.113281 3.6875 -24.253906 3.6875 -29.890625 C 3.6875 -35.441406 4.894531 -40.5 7.3125 -45.0625 C 9.738281 -49.632812 13.234375 -53.289062 17.796875 -56.03125 C 22.367188 -58.769531 27.867188 -60.140625 34.296875 -60.140625 C 43.347656 -60.140625 50.550781 -57.398438 55.90625 -51.921875 C 61.257812 -46.441406 64.097656 -39.054688 64.421875 -29.765625 C 64.503906 -27.785156 64.582031 -25.207031 64.65625 -22.03125 C 64.738281 -18.851562 65.078125 -15.359375 65.671875 -11.546875 C 66.265625 -7.734375 67.4375 -3.882812 69.1875 0 Z M 69.1875 0 "/></g></g></g><g fill="#000000" fill-opacity="1"><g transform="translate(306.68518, 341.926369)"><g><path d="M 3.140625 -11.984375 C 3.140625 -12.28125 2.953125 -12.703125 2.484375 -12.890625 L 2.390625 -12.65625 C 2.8125 -12.515625 2.890625 -12.125 2.90625 -11.984375 Z M 5.671875 -9.171875 C 5.46875 -9.640625 5 -9.84375 4.484375 -9.828125 L 4.484375 -9.59375 C 5.015625 -9.609375 5.3125 -9.359375 5.4375 -9.09375 Z M 1.84375 -12.671875 L 1.765625 -12.90625 C 1.25 -12.734375 1.09375 -12.1875 1.09375 -12 L 1.328125 -12 C 1.328125 -12.25 1.546875 -12.546875 1.84375 -12.671875 Z M 3.140625 -10.171875 L 3.140625 -11.359375 L 2.90625 -11.359375 L 2.90625 -10.171875 Z M 5.640625 -8.40625 L 5.421875 -8.5 C 5.28125 -8.140625 4.84375 -7.984375 4.5 -8.015625 L 4.5 -7.796875 C 5.046875 -7.75 5.46875 -8 5.640625 -8.40625 Z M 3.90625 -9.59375 L 3.90625 -9.828125 L 2.90625 -9.828125 L 2.90625 -9.59375 Z M 1.328125 -10.171875 L 1.328125 -11.390625 L 1.09375 -11.390625 L 1.09375 -10.171875 Z M 3.90625 -7.796875 L 3.90625 -8.015625 L 3.21875 -8.015625 L 3.21875 -7.796875 Z M 1.328125 -8.59375 L 1.328125 -9.640625 L 1.09375 -9.640625 L 1.09375 -8.59375 Z M 3.140625 -7 L 3.140625 -7.703125 L 2.90625 -7.703125 L 2.90625 -7 Z M 1.328125 -7 L 1.328125 -8.0625 L 1.09375 -8.0625 L 1.09375 -7 Z M 3.140625 -5.40625 L 3.140625 -6.46875 L 2.90625 -6.46875 L 2.90625 -5.40625 Z M 5.640625 -3.15625 C 5.25 -3.5 4.875 -3.515625 4.515625 -3.28125 L 4.578125 -3.0625 C 4.890625 -3.28125 5.15625 -3.28125 5.484375 -2.984375 Z M 5.90625 -2.453125 L 5.6875 -2.421875 C 5.703125 -2.15625 5.484375 -1.8125 5.25 -1.734375 L 5.375 -1.515625 C 5.703125 -1.671875 5.953125 -2.09375 5.90625 -2.453125 Z M 1.328125 -5.40625 L 1.328125 -6.46875 L 1.09375 -6.46875 L 1.09375 -5.40625 Z M 3.140625 -3.8125 L 3.140625 -4.875 L 2.90625 -4.875 L 2.90625 -3.8125 Z M 3.984375 -2.90625 L 3.953125 -3.140625 C 3.625 -3.078125 3.328125 -3.046875 3.171875 -3.28125 L 2.953125 -3.203125 C 3.09375 -2.78125 3.671875 -2.84375 3.984375 -2.90625 Z M 1.328125 -3.8125 L 1.328125 -4.875 L 1.09375 -4.875 L 1.09375 -3.8125 Z M 4.765625 -1.234375 L 4.6875 -1.46875 C 4.5 -1.375 3.984375 -1.28125 3.734375 -1.296875 L 3.734375 -1.078125 C 3.984375 -1.046875 4.609375 -1.1875 4.765625 -1.234375 Z M 3.171875 -1.34375 C 2.890625 -1.375 2.515625 -1.5 2.28125 -1.6875 L 2.15625 -1.484375 C 2.40625 -1.296875 2.828125 -1.171875 3.15625 -1.109375 Z M 1.78125 -2.125 C 1.578125 -2.3125 1.421875 -2.6875 1.359375 -3.0625 L 1.15625 -3.015625 C 1.171875 -2.625 1.375 -2.171875 1.625 -1.96875 Z M 5.515625 -1.328125 C 5.078125 -1.046875 4.28125 -0.828125 3.640625 -0.828125 C 2.578125 -0.828125 0.875 -1.46875 0.875 -3.484375 L 0.875 -11.890625 C 0.875 -13.609375 3.359375 -13.609375 3.359375 -11.890625 L 3.359375 -10.0625 L 4.578125 -10.0625 C 6.4375 -10.0625 6.4375 -7.5625 4.578125 -7.5625 L 3.359375 -7.5625 L 3.359375 -3.484375 C 3.359375 -3.28125 3.5625 -3.328125 3.640625 -3.328125 C 3.90625 -3.328125 4.171875 -3.359375 4.390625 -3.484375 C 5.6875 -4.296875 6.96875 -2.3125 5.515625 -1.328125 Z M 5.515625 -1.328125 "/></g></g></g><g fill="#000000" fill-opacity="1"><g transform="translate(313.236292, 341.926369)"><g><path d="M 9.078125 -7.84375 C 8.90625 -8.125 8.546875 -8.609375 8.375 -8.78125 L 8.21875 -8.609375 C 8.4375 -8.375 8.734375 -7.984375 8.890625 -7.71875 Z M 7.890625 -9.203125 C 7.703125 -9.40625 7.203125 -9.6875 6.890625 -9.828125 L 6.8125 -9.609375 C 7.03125 -9.5 7.5 -9.28125 7.734375 -9.03125 Z M 9.609375 -6.34375 C 9.578125 -6.5625 9.46875 -7.046875 9.34375 -7.296875 L 9.140625 -7.1875 C 9.234375 -6.9375 9.359375 -6.546875 9.375 -6.296875 Z M 6.3125 -10.015625 C 6.015625 -10.109375 5.40625 -10.171875 5.171875 -10.171875 L 5.171875 -9.953125 C 5.375 -9.96875 5.828125 -9.90625 6.25 -9.796875 Z M 9.625 -5.859375 L 9.421875 -5.90625 C 9.375 -5.6875 9.28125 -5.546875 9.078125 -5.4375 L 9.1875 -5.234375 C 9.421875 -5.3125 9.625 -5.625 9.625 -5.859375 Z M 7.359375 -7.15625 C 7.203125 -7.421875 7.03125 -7.640625 6.765625 -7.828125 L 6.625 -7.625 C 6.890625 -7.453125 7 -7.3125 7.171875 -7.03125 Z M 6.3125 -8.109375 C 5.96875 -8.296875 5.546875 -8.390625 5.171875 -8.40625 L 5.171875 -8.171875 C 5.5625 -8.171875 5.984375 -8.03125 6.234375 -7.890625 Z M 4.5625 -9.890625 L 4.53125 -10.125 C 4.25 -10.109375 3.671875 -9.96875 3.40625 -9.84375 L 3.484375 -9.625 C 3.765625 -9.75 4.21875 -9.875 4.5625 -9.890625 Z M 8.59375 -5.140625 L 8.59375 -5.359375 L 7.5625 -5.359375 L 7.5625 -5.140625 Z M 7.03125 -6.609375 L 7.03125 -6.828125 L 5.96875 -6.828125 L 5.96875 -6.609375 Z M 9.21875 -3.9375 L 9.046875 -3.75 C 9.15625 -3.546875 9.203125 -3.359375 9.03125 -3.078125 L 9.234375 -2.984375 C 9.40625 -3.171875 9.453125 -3.625 9.21875 -3.9375 Z M 8.8125 -4.3125 C 8.484375 -4.46875 8.109375 -4.375 7.96875 -4.21875 L 8.109375 -4.046875 C 8.296875 -4.15625 8.46875 -4.203125 8.734375 -4.109375 Z M 4.671875 -8.125 L 4.640625 -8.359375 C 4.3125 -8.296875 3.890625 -8.078125 3.703125 -7.90625 L 3.828125 -7.734375 C 4.078125 -7.90625 4.40625 -8.0625 4.671875 -8.125 Z M 7.03125 -5.140625 L 7.03125 -5.359375 L 5.96875 -5.359375 L 5.96875 -5.140625 Z M 2.96875 -9.359375 L 2.890625 -9.59375 C 2.625 -9.453125 2.125 -9.078125 1.953125 -8.875 L 2.109375 -8.703125 C 2.359375 -8.953125 2.71875 -9.265625 2.96875 -9.359375 Z M 5.4375 -6.609375 L 5.4375 -6.828125 L 4.375 -6.828125 L 4.375 -6.609375 Z M 8.953125 -2.625 L 8.765625 -2.765625 C 8.5625 -2.53125 8.171875 -2.25 7.96875 -2.125 L 8.109375 -1.921875 C 8.25 -2.015625 8.6875 -2.296875 8.953125 -2.625 Z M 7.8125 -3.828125 L 7.609375 -3.96875 C 7.4375 -3.75 7.046875 -3.5625 6.78125 -3.453125 L 6.90625 -3.25 C 7.1875 -3.34375 7.5625 -3.5625 7.8125 -3.828125 Z M 3.484375 -7.5 L 3.34375 -7.6875 C 3.15625 -7.546875 2.96875 -7.328125 2.84375 -7.109375 L 3.0625 -7.015625 C 3.171875 -7.1875 3.328125 -7.359375 3.484375 -7.5 Z M 5.4375 -5.140625 L 5.4375 -5.359375 L 4.375 -5.359375 L 4.375 -5.140625 Z M 3.84375 -6.609375 L 3.84375 -6.828125 L 3.1875 -6.828125 L 3.1875 -6.609375 Z M 1.703125 -8.21875 L 1.5 -8.34375 C 1.34375 -8.203125 1.015625 -7.546875 0.921875 -7.28125 L 1.15625 -7.21875 C 1.234375 -7.546875 1.59375 -8.09375 1.703125 -8.21875 Z M 6.359375 -3.09375 L 6.265625 -3.3125 C 6.03125 -3.234375 5.5625 -3.1875 5.234375 -3.203125 L 5.234375 -2.96875 C 5.578125 -2.953125 6.03125 -2.96875 6.359375 -3.09375 Z M 3.84375 -5.140625 L 3.84375 -5.359375 L 2.78125 -5.359375 L 2.78125 -5.140625 Z M 7.546875 -1.671875 L 7.4375 -1.875 C 7.140625 -1.6875 6.625 -1.578125 6.25 -1.5 L 6.296875 -1.28125 C 6.578125 -1.328125 7.21875 -1.46875 7.546875 -1.671875 Z M 4.75 -3.234375 C 4.5 -3.234375 3.96875 -3.453125 3.765625 -3.59375 L 3.6875 -3.375 C 4 -3.171875 4.40625 -3.046875 4.6875 -3.015625 Z M 0.953125 -6.609375 L 0.71875 -6.625 C 0.640625 -6.296875 0.609375 -5.703125 0.640625 -5.421875 L 0.875 -5.4375 C 0.828125 -5.703125 0.890625 -6.28125 0.953125 -6.609375 Z M 3.421875 -3.875 C 3.25 -4.03125 2.984375 -4.3125 2.84375 -4.640625 L 2.640625 -4.546875 C 2.84375 -4.109375 3.09375 -3.859375 3.25 -3.71875 Z M 5.625 -1.203125 L 5.609375 -1.4375 C 5.40625 -1.375 4.6875 -1.40625 4.4375 -1.453125 L 4.390625 -1.234375 C 4.671875 -1.171875 5.4375 -1.140625 5.625 -1.203125 Z M 1.296875 -3.765625 C 1.1875 -3.984375 1.046875 -4.265625 0.9375 -4.8125 L 0.703125 -4.796875 C 0.75 -4.515625 0.921875 -3.984375 1.078125 -3.671875 Z M 3.875 -1.578125 C 3.546875 -1.6875 3.078125 -1.875 2.84375 -2.046875 L 2.703125 -1.859375 C 3.015625 -1.640625 3.515625 -1.453125 3.765625 -1.359375 Z M 2.34375 -2.421875 C 2.109375 -2.609375 1.734375 -3.015625 1.609375 -3.21875 L 1.421875 -3.09375 C 1.5625 -2.875 1.953125 -2.4375 2.171875 -2.25 Z M 9.859375 -5.984375 C 9.859375 -5.296875 9.4375 -4.90625 8.609375 -4.90625 L 3.03125 -4.90625 C 3.234375 -4.15625 4.046875 -3.4375 5.109375 -3.4375 C 5.9375 -3.4375 6.84375 -3.546875 7.546875 -4.203125 C 8.875 -5.46875 10.234375 -3.734375 9.296875 -2.640625 C 8.328125 -1.5 6.828125 -0.9375 5.109375 -0.9375 C 2.484375 -0.9375 0.390625 -3.03125 0.390625 -5.671875 C 0.390625 -8.296875 2.453125 -10.40625 5.109375 -10.40625 C 8.203125 -10.40625 9.859375 -7.625 9.859375 -5.984375 Z M 6.875 -7.0625 C 6.5625 -7.5 5.875 -7.953125 5.171875 -7.953125 C 4.4375 -7.953125 3.78125 -7.5 3.375 -7.0625 Z M 6.875 -7.0625 "/></g></g></g><g fill="#000000" fill-opacity="1"><g transform="translate(323.682657, 341.926369)"><g><path d="M 8.109375 -8.75 C 7.875 -9 7.3125 -9.421875 6.96875 -9.578125 L 6.890625 -9.359375 C 7.296875 -9.15625 7.640625 -8.84375 7.953125 -8.5625 Z M 8.8125 -7.03125 C 8.953125 -7.484375 8.765625 -7.96875 8.53125 -8.203125 L 8.359375 -8.0625 C 8.515625 -7.859375 8.703125 -7.453125 8.5625 -7.109375 Z M 6.375 -9.8125 C 6.09375 -9.9375 5.578125 -10.03125 5.21875 -10.0625 L 5.203125 -9.828125 C 5.453125 -9.8125 6.015625 -9.71875 6.28125 -9.59375 Z M 8.234375 -6.5 L 8.171875 -6.765625 C 7.9375 -6.640625 7.546875 -6.703125 7.3125 -6.9375 L 7.109375 -6.8125 C 7.28125 -6.5625 7.9375 -6.34375 8.234375 -6.5 Z M 6.9375 -7.328125 C 6.765625 -7.5625 6.296875 -7.890625 6.125 -7.96875 L 5.984375 -7.796875 C 6.203125 -7.6875 6.578125 -7.421875 6.765625 -7.171875 Z M 4.609375 -9.8125 L 4.609375 -10.03125 C 4.171875 -10.015625 3.6875 -9.890625 3.421875 -9.796875 L 3.484375 -9.5625 C 3.6875 -9.625 4.25 -9.796875 4.609375 -9.8125 Z M 5.625 -8.15625 C 5.34375 -8.265625 4.96875 -8.28125 4.75 -8.25 L 4.765625 -8.015625 C 4.921875 -8.03125 5.234375 -8.0625 5.546875 -7.953125 Z M 8.6875 -3.359375 C 8.828125 -3.578125 8.84375 -3.96875 8.59375 -4.3125 L 8.40625 -4.171875 C 8.609375 -3.953125 8.5625 -3.609375 8.484375 -3.453125 Z M 8.015625 -4.6875 C 7.671875 -4.78125 7.1875 -4.703125 7.015625 -4.421875 L 7.203125 -4.296875 C 7.34375 -4.484375 7.640625 -4.5625 7.984375 -4.484375 Z M 4.265625 -7.953125 L 4.203125 -8.15625 C 3.9375 -8.109375 3.546875 -7.890625 3.296875 -7.6875 L 3.421875 -7.5 C 3.640625 -7.71875 4 -7.875 4.265625 -7.953125 Z M 2.90625 -9.296875 L 2.796875 -9.5 C 2.5 -9.359375 2.046875 -9 1.84375 -8.8125 L 1.984375 -8.625 C 2.140625 -8.78125 2.578125 -9.15625 2.90625 -9.296875 Z M 8.34375 -2.828125 L 8.125 -2.921875 C 7.984375 -2.71875 7.84375 -2.5625 7.5625 -2.34375 L 7.734375 -2.171875 C 7.984375 -2.34375 8.171875 -2.625 8.34375 -2.828125 Z M 6.96875 -3.90625 L 6.796875 -4.046875 C 6.703125 -3.953125 6.546875 -3.78125 6.40625 -3.703125 L 6.53125 -3.5 C 6.6875 -3.59375 6.875 -3.765625 6.96875 -3.90625 Z M 3.09375 -7.1875 L 2.90625 -7.3125 C 2.703125 -7.078125 2.484375 -6.703125 2.40625 -6.375 L 2.640625 -6.3125 C 2.6875 -6.625 2.890625 -6.953125 3.09375 -7.1875 Z M 1.625 -8.21875 L 1.46875 -8.375 C 1.296875 -8.203125 0.90625 -7.46875 0.828125 -7.28125 L 1.03125 -7.140625 C 1.046875 -7.28125 1.546875 -8.140625 1.625 -8.21875 Z M 6.21875 -3.296875 L 6.109375 -3.484375 C 5.859375 -3.34375 5.578125 -3.234375 5.25 -3.21875 L 5.25 -2.984375 C 5.59375 -3.03125 5.890625 -3.09375 6.21875 -3.296875 Z M 7.234375 -1.84375 L 7.0625 -2 C 6.828125 -1.828125 6.296875 -1.59375 6.03125 -1.546875 L 6.109375 -1.328125 C 6.40625 -1.40625 7 -1.625 7.234375 -1.84375 Z M 2.6875 -4.75 C 2.5625 -4.953125 2.515625 -5.484375 2.53125 -5.875 L 2.296875 -5.859375 C 2.28125 -5.5 2.28125 -5.1875 2.453125 -4.671875 Z M 4.703125 -3.21875 C 4.4375 -3.234375 3.96875 -3.359375 3.75 -3.515625 L 3.640625 -3.328125 C 3.96875 -3.109375 4.375 -3.015625 4.65625 -2.984375 Z M 0.84375 -6.53125 L 0.625 -6.546875 C 0.5625 -6.296875 0.515625 -5.6875 0.546875 -5.359375 L 0.765625 -5.359375 C 0.75 -5.578125 0.796875 -6.234375 0.84375 -6.53125 Z M 3.421875 -3.734375 C 3.25 -3.890625 2.984375 -4.140625 2.84375 -4.40625 L 2.640625 -4.3125 C 2.828125 -3.96875 3.09375 -3.71875 3.25 -3.578125 Z M 5.515625 -1.21875 L 5.5 -1.453125 C 5.296875 -1.40625 4.578125 -1.40625 4.34375 -1.46875 L 4.28125 -1.234375 C 4.5625 -1.1875 5.328125 -1.171875 5.515625 -1.21875 Z M 1.203125 -3.703125 C 1.09375 -3.90625 0.96875 -4.203125 0.875 -4.75 L 0.640625 -4.734375 C 0.671875 -4.4375 0.828125 -3.90625 0.984375 -3.59375 Z M 3.828125 -1.5625 C 3.484375 -1.671875 3.046875 -1.828125 2.796875 -2 L 2.65625 -1.8125 C 2.953125 -1.609375 3.46875 -1.4375 3.71875 -1.34375 Z M 2.28125 -2.359375 C 2.046875 -2.53125 1.671875 -2.9375 1.546875 -3.15625 L 1.34375 -3.03125 C 1.484375 -2.796875 1.875 -2.375 2.109375 -2.171875 Z M 8.828125 -8.15625 C 9.8125 -6.671875 7.96875 -5.40625 6.8125 -6.796875 C 6.296875 -7.40625 5.703125 -7.8125 4.9375 -7.8125 C 3.703125 -7.8125 2.765625 -6.828125 2.765625 -5.625 C 2.765625 -4.390625 3.734375 -3.4375 4.9375 -3.4375 C 5.75 -3.4375 6.4375 -3.859375 6.6875 -4.375 C 7.375 -5.6875 9.6875 -4.53125 8.8125 -3.09375 C 8.140625 -1.984375 6.828125 -0.953125 4.96875 -0.953125 C 2.34375 -0.953125 0.296875 -2.96875 0.296875 -5.671875 C 0.296875 -8.15625 2.28125 -10.28125 4.96875 -10.28125 C 6.609375 -10.28125 8.015625 -9.46875 8.828125 -8.15625 Z M 8.828125 -8.15625 "/></g></g></g><g fill="#000000" fill-opacity="1"><g transform="translate(333.066674, 341.926369)"><g><path d="M 9.140625 -7.828125 C 9.03125 -8.0625 8.46875 -8.875 8.203125 -9.03125 L 8.03125 -8.875 C 8.296875 -8.671875 8.78125 -8.03125 8.9375 -7.703125 Z M 7.609375 -9.5 C 7.4375 -9.640625 6.796875 -9.953125 6.546875 -10.015625 L 6.46875 -9.8125 C 6.78125 -9.71875 7.21875 -9.5 7.453125 -9.328125 Z M 9.546875 -5.828125 C 9.578125 -6.109375 9.46875 -6.953125 9.359375 -7.109375 L 9.15625 -7.015625 C 9.296875 -6.75 9.3125 -6.09375 9.3125 -5.828125 Z M 3.09375 -12.109375 C 3.09375 -12.421875 2.9375 -12.828125 2.5 -13.046875 L 2.40625 -12.8125 C 2.796875 -12.625 2.84375 -12.265625 2.875 -12.109375 Z M 5.8125 -10.15625 C 5.546875 -10.21875 4.921875 -10.203125 4.640625 -10.140625 L 4.65625 -9.90625 C 4.921875 -9.96875 5.453125 -9.96875 5.765625 -9.953125 Z M 6.921875 -7.8125 C 6.75 -8 6.34375 -8.21875 6.046875 -8.28125 L 6 -8.078125 C 6.28125 -7.984375 6.53125 -7.84375 6.75 -7.640625 Z M 7.75 -6.296875 C 7.71875 -6.671875 7.5 -7.140625 7.28125 -7.421875 L 7.109375 -7.28125 C 7.296875 -7.03125 7.5 -6.53125 7.53125 -6.234375 Z M 1.8125 -12.828125 L 1.734375 -13.0625 C 1.25 -12.875 1.078125 -12.421875 1.078125 -12.109375 L 1.3125 -12.109375 C 1.3125 -12.421875 1.546875 -12.703125 1.8125 -12.828125 Z M 9.546875 -4.375 L 9.546875 -5.25 L 9.3125 -5.25 L 9.3125 -4.375 Z M 3.09375 -10.390625 L 3.09375 -11.453125 L 2.875 -11.453125 L 2.875 -10.390625 Z M 5.5625 -8.390625 C 5.34375 -8.421875 4.765625 -8.390625 4.5625 -8.28125 L 4.625 -8.0625 C 4.875 -8.15625 5.3125 -8.203125 5.546875 -8.15625 Z M 4.140625 -9.8125 L 4.109375 -10.0625 C 3.84375 -9.96875 3.546875 -9.859375 3.328125 -9.734375 L 3.4375 -9.5 C 3.625 -9.640625 3.90625 -9.734375 4.140625 -9.8125 Z M 7.765625 -4.375 L 7.765625 -5.578125 L 7.546875 -5.578125 L 7.546875 -4.375 Z M 9.546875 -2.78125 L 9.546875 -3.84375 L 9.3125 -3.84375 L 9.3125 -2.78125 Z M 1.3125 -10.390625 L 1.3125 -11.46875 L 1.078125 -11.46875 L 1.078125 -10.390625 Z M 3.09375 -9.375 L 3.09375 -9.859375 L 2.875 -9.859375 L 2.875 -9.375 Z M 4.234375 -7.890625 L 4.15625 -8.125 C 3.90625 -8.03125 3.421875 -7.578125 3.28125 -7.34375 L 3.4375 -7.171875 C 3.609375 -7.4375 3.953125 -7.796875 4.234375 -7.890625 Z M 7.765625 -2.78125 L 7.765625 -3.84375 L 7.546875 -3.84375 L 7.546875 -2.78125 Z M 1.3125 -8.796875 L 1.3125 -9.875 L 1.078125 -9.875 L 1.078125 -8.796875 Z M 1.3125 -7.375 L 1.3125 -8.46875 L 1.078125 -8.46875 L 1.078125 -7.375 Z M 3.234375 -6.78125 L 3.046875 -6.890625 C 2.90625 -6.6875 2.875 -5.9375 2.875 -5.78125 L 3.09375 -5.78125 C 3.078125 -5.96875 3.109375 -6.546875 3.234375 -6.78125 Z M 1.3125 -5.78125 L 1.3125 -6.84375 L 1.078125 -6.84375 L 1.078125 -5.78125 Z M 3.09375 -4.203125 L 3.09375 -5.25 L 2.875 -5.25 L 2.875 -4.203125 Z M 1.3125 -4.203125 L 1.3125 -5.25 L 1.078125 -5.25 L 1.078125 -4.203125 Z M 3.09375 -2.78125 L 3.09375 -3.671875 L 2.875 -3.671875 L 2.875 -2.78125 Z M 1.3125 -2.78125 L 1.3125 -3.671875 L 1.078125 -3.671875 L 1.078125 -2.78125 Z M 3.078125 -2.109375 L 2.84375 -2.109375 C 2.875 -1.8125 2.65625 -1.515625 2.375 -1.40625 L 2.4375 -1.171875 C 2.953125 -1.328125 3.09375 -1.84375 3.078125 -2.109375 Z M 1.828125 -1.40625 C 1.4375 -1.515625 1.328125 -1.96875 1.3125 -2.125 L 1.078125 -2.125 C 1.078125 -1.75 1.3125 -1.3125 1.734375 -1.171875 Z M 9.765625 -2.21875 C 9.765625 -0.359375 7.3125 -0.359375 7.3125 -2.21875 L 7.3125 -5.953125 C 7.3125 -7.046875 6.421875 -7.953125 5.328125 -7.953125 C 4.171875 -7.953125 3.328125 -7.046875 3.328125 -5.953125 L 3.328125 -2.21875 C 3.328125 -0.390625 0.84375 -0.390625 0.84375 -2.21875 L 0.84375 -12.03125 C 0.84375 -13.828125 3.328125 -13.828125 3.328125 -12.03125 L 3.328125 -10 C 3.90625 -10.265625 4.609375 -10.421875 5.328125 -10.421875 C 7.75 -10.421875 9.765625 -8.4375 9.765625 -5.953125 Z M 9.546875 -2.109375 L 9.3125 -2.109375 C 9.328125 -1.8125 9.109375 -1.515625 8.828125 -1.40625 L 8.90625 -1.171875 C 9.421875 -1.328125 9.5625 -1.84375 9.546875 -2.109375 Z M 8.28125 -1.40625 C 7.890625 -1.515625 7.796875 -1.96875 7.765625 -2.125 L 7.546875 -2.125 C 7.546875 -1.75 7.765625 -1.3125 8.203125 -1.171875 Z M 8.28125 -1.40625 "/></g></g></g></svg>